<svg width="20" height="20" viewBox="0 0 20 20" fill="none" xmlns="http://www.w3.org/2000/svg">
<g clip-path="url(#clip0_731_308)">
<path d="M18.4592 12.5139C18.1841 12.5139 17.9611 12.7368 17.9611 13.012V17.4346C17.9601 18.2595 17.2918 18.9281 16.4668 18.9289H2.49052C1.66551 18.9281 0.997203 18.2595 0.996207 17.4346V4.45451C0.997203 3.6297 1.66556 2.96119 2.49052 2.9602H6.91318C7.18828 2.9602 7.41128 2.7372 7.41128 2.46209C7.41128 2.18714 7.18828 1.96399 6.91318 1.96399H2.49052C1.11565 1.96553 0.00154412 3.07964 0 4.45451V17.4348C0.00154412 18.8096 1.11565 19.9237 2.49052 19.9253H16.4668C17.8416 19.9237 18.9558 18.8096 18.9573 17.4348V13.012C18.9573 12.7368 18.7343 12.5139 18.4592 12.5139Z" fill="white"/>
<path d="M18.76 0.682526C17.8846 -0.192841 16.4654 -0.192841 15.59 0.682526L6.70348 9.56904C6.64265 9.62986 6.59862 9.7054 6.57567 9.7883L5.40707 14.0072C5.38348 14.0922 5.38287 14.1819 5.4053 14.2671C5.42772 14.3524 5.47238 14.4302 5.53471 14.4925C5.59703 14.5549 5.6748 14.5995 5.76005 14.622C5.8453 14.6444 5.93498 14.6439 6.01993 14.6203L10.2389 13.4515C10.3218 13.4286 10.3973 13.3845 10.4581 13.3237L19.3444 4.43703C20.2184 3.56102 20.2184 2.14301 19.3444 1.26705L18.76 0.682526ZM7.7888 9.8928L15.0618 2.6197L17.4073 4.96527L10.1342 12.2384L7.7888 9.8928ZM7.32028 10.833L9.19415 12.7071L6.60212 13.4253L7.32028 10.833ZM18.6401 3.73266L18.1118 4.26085L15.7661 1.91508L16.2946 1.38684C16.7808 0.900596 17.5692 0.900596 18.0554 1.38684L18.6401 1.97132C19.1256 2.45816 19.1256 3.24601 18.6401 3.73266Z" fill="white"/>
</g>
<defs>
<clipPath id="clip0_731_308">
<rect width="20" height="20" fill="white"/>
</clipPath>
</defs>
</svg>
