<svg width="15" height="15" viewBox="0 0 15 15" fill="none" xmlns="http://www.w3.org/2000/svg">
<g clip-path="url(#clip0_972_1184)">
<path d="M13.3594 1.64062C12.4219 0.703125 10.9219 0.703125 10.0312 1.64062L8.29688 3.375C7.78125 3.14062 7.125 3.1875 6.70313 3.65625C6.14063 4.21875 6.14063 5.10938 6.70313 5.67188L2.67187 9.70313C2.39062 9.98438 2.25 10.3594 2.25 10.7812L1.3125 11.7188C0.75 12.2813 0.75 13.1719 1.3125 13.7344C1.64063 13.9219 1.96875 14.0625 2.34375 14.0625C2.71875 14.0625 3.04687 13.9219 3.32812 13.6406L4.26563 12.7031C4.64063 12.75 5.0625 12.5625 5.34375 12.2813L9.375 8.25C9.65625 8.53125 10.0313 8.67188 10.3594 8.67188C10.7344 8.67188 11.0625 8.53125 11.3438 8.25C11.7656 7.82813 11.8594 7.17187 11.625 6.65625L13.3594 4.92188C14.2969 4.03125 14.2969 2.53125 13.3594 1.64062ZM8.71875 7.64062L6.98438 9.375H4.26563L7.35938 6.28125L8.71875 7.64062Z" fill="black"/>
</g>
<defs>
<clipPath id="clip0_972_1184">
<rect width="15" height="15" fill="white"/>
</clipPath>
</defs>
</svg>
