<svg width="17" height="17" viewBox="0 0 17 17" fill="none" xmlns="http://www.w3.org/2000/svg">
<path fill-rule="evenodd" clip-rule="evenodd" d="M11.098 3.59934C10.2802 3.33204 9.40688 3.1875 8.49968 3.1875C4.95801 3.1875 1.93342 5.39042 0.708008 8.5C1.20028 9.74918 1.9829 10.852 2.97275 11.7245L5.12442 9.57288C5.01512 9.22905 4.95801 8.86747 4.95801 8.5C4.95801 7.56069 5.33115 6.65985 5.99534 5.99566C6.65953 5.33147 7.56037 4.95833 8.49968 4.95833C8.86714 4.95833 9.22873 5.01544 9.57255 5.12474L11.098 3.59934ZM8.31419 6.38311C7.81858 6.42651 7.35163 6.64284 6.99707 6.9974C6.64251 7.35196 6.42619 7.81891 6.38278 8.31451L8.31419 6.38311ZM8.85851 10.5945L10.5942 8.85883C10.5204 9.28925 10.3152 9.6897 10.0023 10.0026C9.68937 10.3155 9.28893 10.5208 8.85851 10.5945ZM7.54299 11.91C7.8517 11.9966 8.17337 12.0417 8.49968 12.0417C9.43898 12.0417 10.3398 11.6685 11.004 11.0043C11.6682 10.3401 12.0413 9.43931 12.0413 8.5C12.0413 8.17369 11.9963 7.85203 11.9097 7.54331L14.1064 5.34665C15.0585 6.20764 15.8124 7.28456 16.2913 8.5C15.0659 11.6096 12.0413 13.8125 8.49968 13.8125C7.63466 13.8125 6.80049 13.6811 6.01585 13.4372L7.54299 11.91Z" fill="#272727"/>
<rect x="13.8242" y="2.04138" width="1.71052" height="16.6632" rx="0.855259" transform="rotate(45 13.8242 2.04138)" fill="#272727"/>
</svg>
