<svg width="21" height="21" viewBox="0 0 21 21" fill="none" xmlns="http://www.w3.org/2000/svg">
<path d="M2.75 1.125C2.58424 1.125 2.42527 1.19085 2.30806 1.30806C2.19085 1.42527 2.125 1.58424 2.125 1.75V19.25C2.125 19.4158 2.19085 19.5747 2.30806 19.6919C2.42527 19.8092 2.58424 19.875 2.75 19.875C2.91576 19.875 3.07473 19.8092 3.19194 19.6919C3.30915 19.5747 3.375 19.4158 3.375 19.25V1.75C3.375 1.58424 3.30915 1.42527 3.19194 1.30806C3.07473 1.19085 2.91576 1.125 2.75 1.125Z" fill="black"/>
<path d="M12.75 4.25H6.5C5.46447 4.25 4.625 5.08947 4.625 6.125V8C4.625 9.03553 5.46447 9.875 6.5 9.875H12.75C13.7855 9.875 14.625 9.03553 14.625 8V6.125C14.625 5.08947 13.7855 4.25 12.75 4.25Z" fill="black"/>
<path d="M16.5 11.125H6.5C5.46447 11.125 4.625 11.9645 4.625 13V14.875C4.625 15.9105 5.46447 16.75 6.5 16.75H16.5C17.5355 16.75 18.375 15.9105 18.375 14.875V13C18.375 11.9645 17.5355 11.125 16.5 11.125Z" fill="black"/>
</svg>
