<svg width="20" height="20" viewBox="0 0 20 20" fill="none" xmlns="http://www.w3.org/2000/svg">
<path d="M18.75 9.375H16.25V6.875C16.25 6.37772 16.0525 5.90081 15.7008 5.54917C15.3492 5.19754 14.8723 5 14.375 5H12.5C12.0027 5 11.5258 5.19754 11.1742 5.54917C10.8225 5.90081 10.625 6.37772 10.625 6.875V9.375H9.375V5C9.375 4.50272 9.17746 4.02581 8.82583 3.67417C8.47419 3.32254 7.99728 3.125 7.5 3.125H5.625C5.12772 3.125 4.65081 3.32254 4.29917 3.67417C3.94754 4.02581 3.75 4.50272 3.75 5V9.375H1.25C1.08424 9.375 0.925268 9.44085 0.808058 9.55806C0.690848 9.67527 0.625 9.83424 0.625 10C0.625 10.1658 0.690848 10.3247 0.808058 10.4419C0.925268 10.5592 1.08424 10.625 1.25 10.625H3.75V15C3.75 15.4973 3.94754 15.9742 4.29917 16.3258C4.65081 16.6775 5.12772 16.875 5.625 16.875H7.5C7.99728 16.875 8.47419 16.6775 8.82583 16.3258C9.17746 15.9742 9.375 15.4973 9.375 15V10.625H10.625V13.125C10.625 13.6223 10.8225 14.0992 11.1742 14.4508C11.5258 14.8025 12.0027 15 12.5 15H14.375C14.8723 15 15.3492 14.8025 15.7008 14.4508C16.0525 14.0992 16.25 13.6223 16.25 13.125V10.625H18.75C18.9158 10.625 19.0747 10.5592 19.1919 10.4419C19.3092 10.3247 19.375 10.1658 19.375 10C19.375 9.83424 19.3092 9.67527 19.1919 9.55806C19.0747 9.44085 18.9158 9.375 18.75 9.375Z" fill="black"/>
</svg>
