<svg width="21" height="21" viewBox="0 0 21 21" fill="none" xmlns="http://www.w3.org/2000/svg">
<g clip-path="url(#clip0_914_639)">
<path d="M19.5 2.375H2C1.83424 2.375 1.67527 2.44085 1.55806 2.55806C1.44085 2.67527 1.375 2.83424 1.375 3C1.375 3.16576 1.44085 3.32473 1.55806 3.44194C1.67527 3.55915 1.83424 3.625 2 3.625H19.5C19.6658 3.625 19.8247 3.55915 19.9419 3.44194C20.0592 3.32473 20.125 3.16576 20.125 3C20.125 2.83424 20.0592 2.67527 19.9419 2.55806C19.8247 2.44085 19.6658 2.375 19.5 2.375Z" fill="black"/>
<path d="M15.125 4.875H13.25C12.2145 4.875 11.375 5.71447 11.375 6.75V13C11.375 14.0355 12.2145 14.875 13.25 14.875H15.125C16.1605 14.875 17 14.0355 17 13V6.75C17 5.71447 16.1605 4.875 15.125 4.875Z" fill="black"/>
<path d="M8.25 4.875H6.375C5.33947 4.875 4.5 5.71447 4.5 6.75V16.75C4.5 17.7855 5.33947 18.625 6.375 18.625H8.25C9.28553 18.625 10.125 17.7855 10.125 16.75V6.75C10.125 5.71447 9.28553 4.875 8.25 4.875Z" fill="black"/>
</g>
<defs>
<clipPath id="clip0_914_639">
<rect width="20" height="20" fill="white" transform="translate(0.75 0.5)"/>
</clipPath>
</defs>
</svg>
