<svg width="20" height="20" viewBox="0 0 20 20" fill="none" xmlns="http://www.w3.org/2000/svg">
<path d="M17.5 0.625C17.3342 0.625 17.1753 0.690848 17.0581 0.808058C16.9408 0.925268 16.875 1.08424 16.875 1.25V18.75C16.875 18.9158 16.9408 19.0747 17.0581 19.1919C17.1753 19.3092 17.3342 19.375 17.5 19.375C17.6658 19.375 17.8247 19.3092 17.9419 19.1919C18.0592 19.0747 18.125 18.9158 18.125 18.75V1.25C18.125 1.08424 18.0592 0.925268 17.9419 0.808058C17.8247 0.690848 17.6658 0.625 17.5 0.625Z" fill="black"/>
<path d="M13.75 3.75H7.5C6.46447 3.75 5.625 4.58947 5.625 5.625V7.5C5.625 8.53553 6.46447 9.375 7.5 9.375H13.75C14.7855 9.375 15.625 8.53553 15.625 7.5V5.625C15.625 4.58947 14.7855 3.75 13.75 3.75Z" fill="black"/>
<path d="M13.75 10.625H3.75C2.71447 10.625 1.875 11.4645 1.875 12.5V14.375C1.875 15.4105 2.71447 16.25 3.75 16.25H13.75C14.7855 16.25 15.625 15.4105 15.625 14.375V12.5C15.625 11.4645 14.7855 10.625 13.75 10.625Z" fill="black"/>
</svg>
