<svg width="21" height="21" viewBox="0 0 21 21" fill="none" xmlns="http://www.w3.org/2000/svg">
<g clip-path="url(#clip0_914_649)">
<path d="M19.5 18.625H2C1.83424 18.625 1.67527 18.6908 1.55806 18.8081C1.44085 18.9253 1.375 19.0842 1.375 19.25C1.375 19.4158 1.44085 19.5747 1.55806 19.6919C1.67527 19.8092 1.83424 19.875 2 19.875H19.5C19.6658 19.875 19.8247 19.8092 19.9419 19.6919C20.0592 19.5747 20.125 19.4158 20.125 19.25C20.125 19.0842 20.0592 18.9253 19.9419 18.8081C19.8247 18.6908 19.6658 18.625 19.5 18.625ZM13.25 6.75C12.7527 6.75 12.2758 6.94754 11.9242 7.29917C11.5725 7.65081 11.375 8.12772 11.375 8.625V15.5C11.375 15.9973 11.5725 16.4742 11.9242 16.8258C12.2758 17.1775 12.7527 17.375 13.25 17.375H17C17.4973 17.375 17.9742 17.1775 18.3258 16.8258C18.6775 16.4742 18.875 15.9973 18.875 15.5V8.625C18.875 8.12772 18.6775 7.65081 18.3258 7.29917C17.9742 6.94754 17.4973 6.75 17 6.75H13.25ZM2.625 15.5C2.625 15.9973 2.82254 16.4742 3.17417 16.8258C3.52581 17.1775 4.00272 17.375 4.5 17.375H8.25C8.74728 17.375 9.22419 17.1775 9.57583 16.8258C9.92746 16.4742 10.125 15.9973 10.125 15.5V3.625C10.125 3.12772 9.92746 2.65081 9.57583 2.29917C9.22419 1.94754 8.74728 1.75 8.25 1.75H4.5C4.00272 1.75 3.52581 1.94754 3.17417 2.29917C2.82254 2.65081 2.625 3.12772 2.625 3.625V15.5Z" fill="black"/>
</g>
<defs>
<clipPath id="clip0_914_649">
<rect width="20" height="20" fill="white" transform="translate(0.75 0.5)"/>
</clipPath>
</defs>
</svg>
