<svg width="21" height="21" viewBox="0 0 21 21" fill="none" xmlns="http://www.w3.org/2000/svg">
<path d="M15.75 11.125H11.375V9.875H13.875C14.3723 9.875 14.8492 9.67746 15.2008 9.32583C15.5525 8.97419 15.75 8.49728 15.75 8V6.125C15.75 5.62772 15.5525 5.15081 15.2008 4.79917C14.8492 4.44754 14.3723 4.25 13.875 4.25H11.375V1.75C11.375 1.58424 11.3092 1.42527 11.1919 1.30806C11.0747 1.19085 10.9158 1.125 10.75 1.125C10.5842 1.125 10.4253 1.19085 10.3081 1.30806C10.1908 1.42527 10.125 1.58424 10.125 1.75V4.25H7.625C7.12772 4.25 6.65081 4.44754 6.29917 4.79917C5.94754 5.15081 5.75 5.62772 5.75 6.125V8C5.75 8.49728 5.94754 8.97419 6.29917 9.32583C6.65081 9.67746 7.12772 9.875 7.625 9.875H10.125V11.125H5.75C5.25272 11.125 4.77581 11.3225 4.42417 11.6742C4.07254 12.0258 3.875 12.5027 3.875 13V14.875C3.875 15.3723 4.07254 15.8492 4.42417 16.2008C4.77581 16.5525 5.25272 16.75 5.75 16.75H10.125V19.25C10.125 19.4158 10.1908 19.5747 10.3081 19.6919C10.4253 19.8092 10.5842 19.875 10.75 19.875C10.9158 19.875 11.0747 19.8092 11.1919 19.6919C11.3092 19.5747 11.375 19.4158 11.375 19.25V16.75H15.75C16.2473 16.75 16.7242 16.5525 17.0758 16.2008C17.4275 15.8492 17.625 15.3723 17.625 14.875V13C17.625 12.5027 17.4275 12.0258 17.0758 11.6742C16.7242 11.3225 16.2473 11.125 15.75 11.125Z" fill="black"/>
</svg>
