<svg width="14" height="15" viewBox="0 0 14 15" fill="none" xmlns="http://www.w3.org/2000/svg">
<path d="M5.0763 4.99175L6.41797 3.65008V9.25008C6.41797 9.60008 6.6513 9.83341 7.0013 9.83341C7.3513 9.83341 7.58463 9.60008 7.58463 9.25008V3.65008L8.9263 4.99175C9.15963 5.22508 9.50963 5.22508 9.74297 4.99175C9.9763 4.75841 9.9763 4.40841 9.74297 4.17508L7.40963 1.84175C7.3513 1.78341 7.29297 1.72508 7.23463 1.72508C7.1763 1.66675 7.05963 1.66675 7.0013 1.66675C6.94297 1.66675 6.8263 1.66675 6.76797 1.72508C6.70963 1.72508 6.6513 1.78341 6.59297 1.84175L4.25963 4.17508C4.0263 4.40841 4.0263 4.75841 4.25963 4.99175C4.49297 5.22508 4.84297 5.22508 5.0763 4.99175ZM12.2513 6.33341C11.9013 6.33341 11.668 6.56675 11.668 6.91675V10.8834C11.668 11.4084 11.668 11.7001 11.6096 11.8751C11.5513 11.9917 11.4346 12.0501 11.3763 12.1084C11.2013 12.1667 10.9096 12.1667 10.3846 12.1667H3.61797C3.09297 12.1667 2.8013 12.1667 2.6263 12.1084C2.50964 12.0501 2.4513 11.9334 2.39297 11.8751C2.33464 11.7001 2.33464 11.4084 2.33464 10.8834V6.91675C2.33464 6.56675 2.1013 6.33341 1.7513 6.33341C1.4013 6.33341 1.16797 6.56675 1.16797 6.91675V10.8834C1.16797 11.5834 1.16797 11.9917 1.34297 12.4001C1.51797 12.7501 1.7513 12.9834 2.1013 13.1584C2.50964 13.3334 2.91797 13.3334 3.61797 13.3334H10.3846C11.0846 13.3334 11.493 13.3334 11.9013 13.1584C12.2513 12.9834 12.4846 12.7501 12.6596 12.4001C12.8346 11.9917 12.8346 11.5834 12.8346 10.8834V6.91675C12.8346 6.56675 12.6013 6.33341 12.2513 6.33341Z" fill="white"/>
</svg>
