<svg width="17" height="17" viewBox="0 0 17 17" fill="none" xmlns="http://www.w3.org/2000/svg">
<path d="M14.7507 1.8335H2.75065C2.57384 1.8335 2.40427 1.90373 2.27925 2.02876C2.15422 2.15378 2.08398 2.32335 2.08398 2.50016C2.08398 2.67697 2.15422 2.84654 2.27925 2.97157C2.40427 3.09659 2.57384 3.16683 2.75065 3.16683H14.7507C14.9275 3.16683 15.097 3.09659 15.2221 2.97157C15.3471 2.84654 15.4173 2.67697 15.4173 2.50016C15.4173 2.32335 15.3471 2.15378 15.2221 2.02876C15.097 1.90373 14.9275 1.8335 14.7507 1.8335ZM14.7507 7.16683C14.9275 7.16683 15.097 7.0966 15.2221 6.97157C15.3471 6.84655 15.4173 6.67698 15.4173 6.50017C15.4173 6.32336 15.3471 6.15379 15.2221 6.02876C15.097 5.90374 14.9275 5.8335 14.7507 5.8335H6.75066C6.57384 5.8335 6.40427 5.90374 6.27925 6.02876C6.15423 6.15379 6.08399 6.32336 6.08399 6.50017C6.08399 6.67698 6.15423 6.84655 6.27925 6.97157C6.40427 7.0966 6.57384 7.16683 6.75066 7.16683H14.7507ZM2.08398 10.5002C2.08398 10.677 2.15422 10.8466 2.27925 10.9716C2.40427 11.0966 2.57384 11.1668 2.75065 11.1668H14.7507C14.9275 11.1668 15.097 11.0966 15.2221 10.9716C15.3471 10.8466 15.4173 10.677 15.4173 10.5002C15.4173 10.3234 15.3471 10.1538 15.2221 10.0288C15.097 9.90374 14.9275 9.8335 14.7507 9.8335H2.75065C2.57384 9.8335 2.40427 9.90374 2.27925 10.0288C2.15422 10.1538 2.08398 10.3234 2.08398 10.5002ZM15.4173 14.5002C15.4173 14.3234 15.3471 14.1538 15.2221 14.0288C15.097 13.9037 14.9275 13.8335 14.7507 13.8335H6.75066C6.57384 13.8335 6.40427 13.9037 6.27925 14.0288C6.15423 14.1538 6.08399 14.3234 6.08399 14.5002C6.08399 14.677 6.15423 14.8466 6.27925 14.9716C6.40427 15.0966 6.57384 15.1668 6.75066 15.1668H14.7507C14.9275 15.1668 15.097 15.0966 15.2221 14.9716C15.3471 14.8466 15.4173 14.677 15.4173 14.5002Z" fill="black"/>
</svg>
