<svg width="17" height="17" viewBox="0 0 17 17" fill="none" xmlns="http://www.w3.org/2000/svg">
<path d="M1.58301 2.50016C1.58301 2.67697 1.65325 2.84654 1.77827 2.97157C1.90329 3.09659 2.07286 3.16683 2.24967 3.16683H14.2497C14.4265 3.16683 14.5961 3.09659 14.7211 2.97157C14.8461 2.84654 14.9163 2.67697 14.9163 2.50016C14.9163 2.32335 14.8461 2.15378 14.7211 2.02876C14.5961 1.90373 14.4265 1.8335 14.2497 1.8335H2.24967C2.07286 1.8335 1.90329 1.90373 1.77827 2.02876C1.65325 2.15378 1.58301 2.32335 1.58301 2.50016ZM2.24967 7.16683H14.2497C14.4265 7.16683 14.5961 7.09659 14.7211 6.97157C14.8461 6.84654 14.9163 6.67697 14.9163 6.50016C14.9163 6.32335 14.8461 6.15378 14.7211 6.02876C14.5961 5.90373 14.4265 5.8335 14.2497 5.8335H2.24967C2.07286 5.8335 1.90329 5.90373 1.77827 6.02876C1.65325 6.15378 1.58301 6.32335 1.58301 6.50016C1.58301 6.67697 1.65325 6.84654 1.77827 6.97157C1.90329 7.09659 2.07286 7.16683 2.24967 7.16683ZM2.24967 11.1668H14.2497C14.4265 11.1668 14.5961 11.0966 14.7211 10.9716C14.8461 10.8465 14.9163 10.677 14.9163 10.5002C14.9163 10.3234 14.8461 10.1538 14.7211 10.0288C14.5961 9.90373 14.4265 9.8335 14.2497 9.8335H2.24967C2.07286 9.8335 1.90329 9.90373 1.77827 10.0288C1.65325 10.1538 1.58301 10.3234 1.58301 10.5002C1.58301 10.677 1.65325 10.8465 1.77827 10.9716C1.90329 11.0966 2.07286 11.1668 2.24967 11.1668ZM2.24967 15.1668H14.2497C14.4265 15.1668 14.5961 15.0966 14.7211 14.9716C14.8461 14.8465 14.9163 14.677 14.9163 14.5002C14.9163 14.3234 14.8461 14.1538 14.7211 14.0288C14.5961 13.9037 14.4265 13.8335 14.2497 13.8335H2.24967C2.07286 13.8335 1.90329 13.9037 1.77827 14.0288C1.65325 14.1538 1.58301 14.3234 1.58301 14.5002C1.58301 14.677 1.65325 14.8465 1.77827 14.9716C1.90329 15.0966 2.07286 15.1668 2.24967 15.1668Z" fill="black"/>
</svg>
