<svg width="17" height="17" viewBox="0 0 17 17" fill="none" xmlns="http://www.w3.org/2000/svg">
<path d="M14.9709 3.27312H1.53085C1.10774 3.27312 0.78418 2.94956 0.78418 2.52645C0.78418 2.10334 1.10774 1.77979 1.53085 1.77979H14.9709C15.394 1.77979 15.7175 2.10334 15.7175 2.52645C15.7175 2.94956 15.394 3.27312 14.9709 3.27312ZM12.7309 7.25535H3.77085C3.34774 7.25535 3.02418 6.93179 3.02418 6.50868C3.02418 6.08557 3.34774 5.76201 3.77085 5.76201H12.7309C13.154 5.76201 13.4775 6.08557 13.4775 6.50868C13.4775 6.93179 13.154 7.25535 12.7309 7.25535ZM14.9709 11.2376H1.53085C1.10774 11.2376 0.78418 10.914 0.78418 10.4909C0.78418 10.0678 1.10774 9.74424 1.53085 9.74424H14.9709C15.394 9.74424 15.7175 10.0678 15.7175 10.4909C15.7175 10.914 15.394 11.2376 14.9709 11.2376ZM12.7309 15.2198H3.77085C3.34774 15.2198 3.02418 14.8962 3.02418 14.4731C3.02418 14.05 3.34774 13.7265 3.77085 13.7265H12.7309C13.154 13.7265 13.4775 14.05 13.4775 14.4731C13.4775 14.8962 13.154 15.2198 12.7309 15.2198Z" fill="black"/>
</svg>
