<svg width="16" height="16" viewBox="0 0 16 16" fill="none" xmlns="http://www.w3.org/2000/svg">
<path d="M1.99967 2.66683H13.9997C14.1765 2.66683 14.3461 2.59659 14.4711 2.47157C14.5961 2.34654 14.6663 2.17697 14.6663 2.00016C14.6663 1.82335 14.5961 1.65378 14.4711 1.52876C14.3461 1.40373 14.1765 1.3335 13.9997 1.3335H1.99967C1.82286 1.3335 1.65329 1.40373 1.52827 1.52876C1.40325 1.65378 1.33301 1.82335 1.33301 2.00016C1.33301 2.17697 1.40325 2.34654 1.52827 2.47157C1.65329 2.59659 1.82286 2.66683 1.99967 2.66683ZM1.99967 6.66683H9.99968C10.1765 6.66683 10.3461 6.59659 10.4711 6.47157C10.5961 6.34655 10.6663 6.17698 10.6663 6.00017C10.6663 5.82335 10.5961 5.65379 10.4711 5.52876C10.3461 5.40374 10.1765 5.3335 9.99968 5.3335H1.99967C1.82286 5.3335 1.65329 5.40374 1.52827 5.52876C1.40325 5.65379 1.33301 5.82335 1.33301 6.00017C1.33301 6.17698 1.40325 6.34655 1.52827 6.47157C1.65329 6.59659 1.82286 6.66683 1.99967 6.66683ZM1.99967 10.6668H13.9997C14.1765 10.6668 14.3461 10.5966 14.4711 10.4716C14.5961 10.3465 14.6663 10.177 14.6663 10.0002C14.6663 9.82336 14.5961 9.65379 14.4711 9.52876C14.3461 9.40374 14.1765 9.3335 13.9997 9.3335H1.99967C1.82286 9.3335 1.65329 9.40374 1.52827 9.52876C1.40325 9.65379 1.33301 9.82336 1.33301 10.0002C1.33301 10.177 1.40325 10.3465 1.52827 10.4716C1.65329 10.5966 1.82286 10.6668 1.99967 10.6668ZM1.99967 14.6668H9.99968C10.1765 14.6668 10.3461 14.5966 10.4711 14.4716C10.5961 14.3466 10.6663 14.177 10.6663 14.0002C10.6663 13.8234 10.5961 13.6538 10.4711 13.5288C10.3461 13.4037 10.1765 13.3335 9.99968 13.3335H1.99967C1.82286 13.3335 1.65329 13.4037 1.52827 13.5288C1.40325 13.6538 1.33301 13.8234 1.33301 14.0002C1.33301 14.177 1.40325 14.3466 1.52827 14.4716C1.65329 14.5966 1.82286 14.6668 1.99967 14.6668Z" fill="black"/>
</svg>
