<svg width="20" height="20" viewBox="0 0 20 20" fill="none" xmlns="http://www.w3.org/2000/svg">
<path fill-rule="evenodd" clip-rule="evenodd" d="M10.8333 15.8335H12.5C12.721 15.8335 12.933 15.9212 13.0893 16.0775C13.2455 16.2338 13.3333 16.4458 13.3333 16.6668C13.3333 16.8878 13.2455 17.0998 13.0893 17.256C12.933 17.4123 12.721 17.5001 12.5 17.5001H7.5C7.27899 17.5001 7.06702 17.4123 6.91074 17.256C6.75446 17.0998 6.66667 16.8878 6.66667 16.6668C6.66667 16.4458 6.75446 16.2338 6.91074 16.0775C7.06702 15.9212 7.27899 15.8335 7.5 15.8335H9.16667V4.16679H4.16667V5.83345C4.16667 6.05447 4.07887 6.26643 3.92259 6.42271C3.76631 6.57899 3.55435 6.66679 3.33333 6.66679C3.11232 6.66679 2.90036 6.57899 2.74408 6.42271C2.5878 6.26643 2.5 6.05447 2.5 5.83345V3.33346C2.5 3.11244 2.5878 2.90048 2.74408 2.7442C2.90036 2.58792 3.11232 2.50012 3.33333 2.50012H16.6667C16.8877 2.50012 17.0996 2.58792 17.2559 2.7442C17.4122 2.90048 17.5 3.11244 17.5 3.33346V5.83345C17.5 6.05447 17.4122 6.26643 17.2559 6.42271C17.0996 6.57899 16.8877 6.66679 16.6667 6.66679C16.4457 6.66679 16.2337 6.57899 16.0774 6.42271C15.9211 6.26643 15.8333 6.05447 15.8333 5.83345V4.16679H10.8333V15.8335Z" fill="white"/>
</svg>
